<svg width="1200" height="630" viewBox="0 0 1200 630" xmlns="http://www.w3.org/2000/svg" role="img" aria-labelledby="title desc" preserveAspectRatio="xMidYMid meet">
  <title id="title">Einbürgerungstest Pro Hero</title>
  <desc id="desc">Store-Hero-Bild in 1200x630 für App Store/Marketing</desc>
  <defs>
    <linearGradient id="bg" x1="0" y1="0" x2="1" y2="1">
      <stop offset="0%" stop-color="#0b1023"/>
      <stop offset="100%" stop-color="#0c1f4a"/>
    </linearGradient>
    <linearGradient id="orb" x1="0" y1="0" x2="1" y2="1">
      <stop offset="0%" stop-color="#7dd3fc"/>
      <stop offset="100%" stop-color="#38bdf8"/>
    </linearGradient>
  </defs>

  <rect width="1200" height="630" fill="url(#bg)"/>
  <circle cx="320" cy="120" r="240" fill="url(#orb)" opacity="0.2"/>
  <circle cx="1150" cy="560" r="170" fill="url(#orb)" opacity="0.12"/>

  <g transform="translate(250 130)">
    <rect x="0" y="0" width="300" height="300" rx="90" fill="#0e1730"/>
    <path d="M150 34 52 90v133c0 91 73 164 98 184 25-20 98-93 98-184V90L150 34z" fill="url(#orb)" fill-opacity="0.3" stroke="url(#orb)" stroke-width="18"/>
    <path d="M112 182 160 232 231 157" fill="none" stroke="#e0f2fe" stroke-width="22" stroke-linecap="round" stroke-linejoin="round"/>
  </g>

  <text x="590" y="220" fill="#f8fafc" font-family="'Inter', 'Segoe UI', Arial, sans-serif" font-size="60" font-weight="700" letter-spacing="1.5">
    EINBÜRGERUNGSTEST PRO
  </text>
  <text x="590" y="290" fill="#93c5fd" font-family="'Inter', 'Segoe UI', Arial, sans-serif" font-size="30" font-weight="500">
    Mit klaren Fragen. Schnell. Zuverlässig.
  </text>

  <rect x="590" y="330" width="460" height="84" rx="18" fill="#f8fafc" opacity="0.95"/>
  <text x="820" y="384" text-anchor="middle" fill="#0f172a" font-family="'Inter', 'Segoe UI', Arial, sans-serif" font-size="30" font-weight="700">
    Jetzt starten
  </text>

  <text x="590" y="470" fill="#cbd5e1" font-family="'Inter', 'Segoe UI', Arial, sans-serif" font-size="24" font-weight="500">
    Deutsch · EN · عربي · Türkisch
  </text>
</svg>
